<svg width="17" height="17" viewBox="0 0 17 17" fill="none" xmlns="http://www.w3.org/2000/svg">
<g clip-path="url(#clip0_1_234)">
<mask id="mask0_1_234" style="mask-type:luminance" maskUnits="userSpaceOnUse" x="0" y="0" width="17" height="17">
<path d="M17 0H0V17H17V0Z" fill="white"/>
</mask>
<g mask="url(#mask0_1_234)">
<path fill-rule="evenodd" clip-rule="evenodd" d="M3 4.5C3 3.67157 3.67157 3 4.5 3H8.5C9.32843 3 10 2.32843 10 1.5C10 0.671573 9.32843 0 8.5 0H4.5C2.01472 0 0 2.01472 0 4.5V12.5C0 14.9853 2.01472 17 4.5 17H12.5C14.9853 17 17 14.9853 17 12.5V8.5C17 7.67157 16.3284 7 15.5 7C14.6716 7 14 7.67157 14 8.5V12.5C14 13.3284 13.3284 14 12.5 14H4.5C3.67157 14 3 13.3284 3 12.5V4.5ZM15.6173 1.73744C16.1055 2.22559 16.1055 3.01705 15.6173 3.5052L9.66584 9.45669C9.51284 9.60968 9.31435 9.70893 9.10015 9.73953L7.28524 9.9988C7.12025 10.0224 6.97883 9.88095 7.0024 9.71596L7.26167 7.90105C7.29227 7.68686 7.39152 7.48836 7.54452 7.33537L13.496 1.38388C13.9842 0.895728 14.7756 0.895728 15.2638 1.38388L15.6173 1.73744Z" fill="#67003E"/>
</g>
</g>
<defs>
<clipPath id="clip0_1_234">
<rect width="17" height="17" fill="white"/>
</clipPath>
</defs>
</svg>
